<svg width="96" height="99" viewBox="0 0 96 99" fill="none" xmlns="http://www.w3.org/2000/svg">
<path d="M44.9922 0.546177C42.5487 1.64439 40.8739 3.95065 40.5444 6.58638C40.3248 8.42589 41.0661 10.7596 42.3016 12.1049L43.2625 13.2031H39.7208C37.0301 13.2031 36.0417 13.0933 35.6299 12.7913C34.6964 12.0775 34.4219 12.2697 34.4219 13.7522C34.4219 14.8779 34.5592 15.2898 35.1083 15.8114C35.7672 16.4978 35.8496 16.4978 40.4621 16.4978H45.1295V17.3215C45.1295 17.7882 44.8824 20.8907 44.5804 24.1853L44.0038 30.2255L47.7926 35.0577C49.8518 37.7483 51.6089 39.78 51.6639 39.6153C51.7188 39.4506 51.4991 34.3987 51.1971 28.3311C50.8676 22.2909 50.6206 17.1567 50.6206 16.9371C50.6206 16.5527 51.252 16.4978 55.2605 16.4978C59.7083 16.4978 59.9554 16.4703 60.5869 15.8663C61.081 15.427 61.3281 14.8505 61.438 13.8072C61.6302 12.2697 61.4105 12.0226 60.3947 12.7913C59.9828 13.0933 58.9944 13.2031 56.3038 13.2031H52.7621L53.723 12.1049C56.8255 8.70045 55.6174 2.85244 51.3893 0.738365C49.6047 -0.167664 46.6944 -0.250031 44.9922 0.546177ZM50.2911 3.78592C51.554 4.71941 52.2679 6.03727 52.2679 7.35513C52.2679 8.86518 51.7188 9.93594 50.4558 10.9243C49.1654 11.8853 46.9415 11.9951 45.7609 11.1165C44.4156 10.1281 43.7567 8.86518 43.7567 7.32767C43.7567 5.65289 44.3607 4.58213 45.8708 3.6761C47.1337 2.87989 49.138 2.9348 50.2911 3.78592ZM46.8866 19.2983C46.3924 30.7197 46.5022 29.7862 45.9257 29.2371C45.4589 28.7429 45.4589 28.4684 45.8159 23.0871C46.0355 19.9846 46.2277 17.2391 46.2277 16.9645C46.2277 16.7174 46.3924 16.4978 46.6121 16.4978C46.9415 16.4978 46.9964 16.992 46.8866 19.2983Z" fill="currentColor"/>
<path d="M27.7381 24.954C29.2756 26.4091 30.3464 27.6721 30.4837 28.1663C30.5935 28.633 30.7033 36.5951 30.7033 45.875C30.7033 65.3684 31.0053 63.2818 27.6009 66.7961L25.5417 68.9376H31.6917H37.8417L35.6453 66.7961C34.4098 65.6155 33.1743 64.1604 32.8997 63.5564C32.2134 62.1287 32.1585 59.8224 32.4055 43.7884L32.6252 30.8569L38.1986 38.3797L43.7446 45.9025V62.6503V79.3707L42.3169 80.8533C41.1364 82.0613 40.5323 82.4457 39.2419 82.8026C37.7593 83.2419 37.4299 83.2419 35.5355 82.885C28.754 81.5397 19.9134 75.8015 12.8299 68.114C10.6609 65.7528 8.87629 63.6113 8.87629 63.3367C8.87629 63.2543 10.1941 63.172 11.814 63.172H14.7517L7.53098 57.7907C3.54995 54.853 0.227848 52.4918 0.172938 52.5742C0.0905715 52.6565 0.172938 53.5077 0.33767 54.4411C1.21624 58.9438 3.90687 64.9566 7.03678 69.4044C9.28812 72.6167 14.9165 78.245 18.4582 80.8533C23.5924 84.6421 30.264 88.1839 37.1279 90.7373C42.921 92.9062 45.9685 94.8281 47.1765 97.052C47.4785 97.6011 47.8355 98.0404 48.0002 98.0404C48.1649 98.0404 48.5219 97.6011 48.8239 97.052C50.0319 94.8281 53.0794 92.9062 58.8725 90.7373C65.7364 88.1839 72.408 84.6421 77.5422 80.8533C81.0839 78.245 86.7123 72.6167 88.9636 69.4044C92.0935 64.9566 94.7842 58.9438 95.6627 54.4411C95.8275 53.5077 95.9098 52.6565 95.8275 52.5742C95.7726 52.4918 92.4505 54.853 88.4694 57.7907L81.2487 63.172H84.3511H87.4536L86.2455 64.5997C78.1188 74.4013 68.3446 81.32 60.4649 82.885C58.5705 83.2419 58.2411 83.2419 56.7585 82.8026C55.4681 82.4457 54.864 82.0613 53.7109 80.8533L52.2558 79.3707V68.4709C52.2558 62.4856 52.3656 57.6809 52.4754 57.8182C52.6127 57.9829 54.562 60.6186 56.7859 63.6662C59.0373 66.7412 61.1513 69.4318 61.4808 69.6515C62.0024 70.0084 62.1946 70.0084 63.0732 69.6515C63.6772 69.4044 64.1714 68.9651 64.3362 68.5258C64.5009 68.0591 64.6107 60.6186 64.6107 48.4559C64.6107 31.9002 64.6656 28.9625 65.0225 28.1388C65.2422 27.5897 66.3679 26.162 67.5484 24.9814L69.635 22.8125H63.6498H57.637L59.6962 24.7893C62.9085 27.9192 62.6888 26.6288 62.6888 42.5255C62.6888 50.1032 62.579 56.3356 62.4417 56.4179C62.3319 56.5003 56.731 49.1422 50.0319 40.0545C43.3328 30.9393 37.6495 23.3067 37.375 23.0321C36.9357 22.5928 36.2768 22.5379 31.0602 22.5379H25.2122L27.7381 24.954ZM47.4511 46.0123C59.8609 62.1287 60.767 63.3916 60.767 64.38C60.767 65.0115 60.6571 65.3684 60.5199 65.2037C60.41 65.0664 54.6444 57.4887 47.7256 48.346C40.8069 39.2034 34.602 31.0216 33.9156 30.1431C32.7076 28.5507 32.7076 28.5232 33.4214 28.633C34.0529 28.6879 36.3866 31.6257 47.4511 46.0123ZM46.7647 71.1066L46.7373 91.8629L46.0783 91.0942L45.3919 90.3254V69.4044V48.5108L46.0783 49.4443L46.7647 50.3777V71.1066ZM92.5054 59.1086C88.8263 68.9102 80.0406 78.2176 68.8663 84.1754C65.9286 85.7678 65.9286 85.6855 69.0036 83.6263C72.9846 80.9357 76.3891 78.0528 80.8368 73.6325C85.4768 68.9925 87.838 65.9999 90.9953 60.7559C92.0935 58.9164 93.027 57.4063 93.0819 57.4063C93.1368 57.4063 92.8623 58.1751 92.5054 59.1086ZM8.60174 66.247C9.59013 67.6472 11.8689 70.3104 13.681 72.1774C18.5955 77.2841 22.3294 80.414 29.0834 85.0814C30.7308 86.2071 24.7455 82.8575 22.4667 81.3749C14.2301 75.9662 8.16245 69.2945 4.62071 61.6894C2.72629 57.6809 2.86356 57.2691 4.92272 60.6461C5.96602 62.3483 7.61334 64.8742 8.60174 66.247Z" fill="currentColor"/>
</svg>
