<svg width="178" height="37" viewBox="0 0 178 37" fill="none" xmlns="http://www.w3.org/2000/svg">
<path d="M16.7335 0.20384C15.8217 0.613657 15.1967 1.47427 15.0738 2.45783C14.9918 3.14428 15.2685 4.01514 15.7295 4.51716L16.0881 4.92698H14.7664C13.7624 4.92698 13.3935 4.886 13.2399 4.7733C12.8915 4.50692 12.7891 4.57863 12.7891 5.13189C12.7891 5.55195 12.8403 5.70563 13.0452 5.90029C13.2911 6.15643 13.3218 6.15643 15.0431 6.15643H16.7848V6.46379C16.7848 6.63796 16.6926 7.7957 16.5799 9.02515L16.3647 11.2791L17.7786 13.0823C18.547 14.0864 19.2027 14.8445 19.2232 14.7831C19.2437 14.7216 19.1617 12.8364 19.049 10.5722C18.9261 8.31821 18.8339 6.40232 18.8339 6.32036C18.8339 6.17692 19.0695 6.15643 20.5653 6.15643C22.2251 6.15643 22.3173 6.14618 22.5529 5.92078C22.7374 5.75686 22.8296 5.5417 22.8706 5.15238C22.9423 4.57863 22.8603 4.48643 22.4812 4.7733C22.3275 4.886 21.9587 4.92698 20.9547 4.92698H19.633L19.9916 4.51716C21.1493 3.24673 20.6985 1.06446 19.1207 0.275558C18.4548 -0.0625401 17.3688 -0.093277 16.7335 0.20384ZM18.7109 1.4128C19.1822 1.76114 19.4486 2.25292 19.4486 2.7447C19.4486 3.3082 19.2437 3.70777 18.7724 4.07661C18.2909 4.4352 17.461 4.47618 17.0204 4.14833C16.5184 3.77949 16.2725 3.3082 16.2725 2.73446C16.2725 2.10949 16.4979 1.70992 17.0614 1.37182C17.5327 1.0747 18.2806 1.09519 18.7109 1.4128ZM17.4405 7.20146C17.2561 11.4636 17.297 11.1152 17.0819 10.9103C16.9077 10.7259 16.9077 10.6234 17.0409 8.61533C17.1229 7.4576 17.1946 6.43305 17.1946 6.3306C17.1946 6.23839 17.2561 6.15643 17.338 6.15643C17.461 6.15643 17.4815 6.34085 17.4405 7.20146Z" fill="currentColor"/>
<path d="M10.2985 9.31202C10.8722 9.85503 11.2718 10.3263 11.323 10.5107C11.364 10.6849 11.405 13.6561 11.405 17.119C11.405 24.3933 11.5177 23.6146 10.2472 24.926L9.47883 25.7252H11.7738H14.0688L13.2491 24.926C12.7881 24.4855 12.3271 23.9425 12.2246 23.7171C11.9685 23.1843 11.948 22.3237 12.0402 16.3404L12.1221 11.5148L14.202 14.322L16.2715 17.1293V23.379V29.6184L15.7388 30.1717C15.2982 30.6225 15.0728 30.7659 14.5913 30.8991C14.038 31.063 13.9151 31.063 13.2082 30.9299C10.6775 30.4278 7.37851 28.2865 4.7352 25.4178C3.92581 24.5367 3.25986 23.7376 3.25986 23.6351C3.25986 23.6044 3.75164 23.5736 4.35612 23.5736H5.45238L2.75783 21.5655C1.27224 20.4693 0.0325488 19.5882 0.012058 19.6189C-0.0186783 19.6496 0.012058 19.9673 0.0735305 20.3156C0.401384 21.9958 1.40543 24.2396 2.57341 25.8994C3.41354 27.0981 5.51385 29.1984 6.83551 30.1717C8.7514 31.5856 11.241 32.9072 13.8024 33.86C15.9642 34.6694 17.1014 35.3866 17.5522 36.2165C17.6649 36.4214 17.7981 36.5853 17.8596 36.5853C17.9211 36.5853 18.0542 36.4214 18.1669 36.2165C18.6177 35.3866 19.755 34.6694 21.9168 33.86C24.4781 32.9072 26.9678 31.5856 28.8836 30.1717C30.2053 29.1984 32.3056 27.0981 33.1457 25.8994C34.3137 24.2396 35.3178 21.9958 35.6456 20.3156C35.7071 19.9673 35.7378 19.6496 35.7071 19.6189C35.6866 19.5882 34.4469 20.4693 32.9613 21.5655L30.2668 23.5736H31.4245H32.5822L32.1314 24.1064C29.0988 27.764 25.4514 30.3459 22.511 30.9299C21.8041 31.063 21.6811 31.063 21.1279 30.8991C20.6463 30.7659 20.4209 30.6225 19.9906 30.1717L19.4476 29.6184V25.551C19.4476 23.3175 19.4886 21.5246 19.5296 21.5758C19.5808 21.6373 20.3082 22.6208 21.1381 23.7581C21.9782 24.9055 22.7671 25.9096 22.8901 25.9916C23.0847 26.1248 23.1565 26.1248 23.4843 25.9916C23.7097 25.8994 23.8941 25.7354 23.9556 25.5715C24.0171 25.3973 24.0581 22.6208 24.0581 18.0821C24.0581 11.9041 24.0785 10.8078 24.2117 10.5005C24.2937 10.2956 24.7138 9.76282 25.1543 9.32226L25.933 8.51288H23.6995H21.4557L22.2241 9.25055C23.4228 10.4185 23.3409 9.93699 23.3409 15.8691C23.3409 18.6968 23.2999 21.0225 23.2487 21.0533C23.2077 21.084 21.1176 18.3382 18.6177 14.947C16.1179 11.5455 13.9971 8.69729 13.8946 8.59484C13.7307 8.43091 13.4848 8.41042 11.5382 8.41042H9.35588L10.2985 9.31202ZM17.6547 17.1703C22.2856 23.1843 22.6237 23.6556 22.6237 24.0244C22.6237 24.2601 22.5827 24.3933 22.5315 24.3318C22.4905 24.2806 20.339 21.4528 17.7571 18.0411C15.1753 14.6294 12.8598 11.5763 12.6037 11.2484C12.1529 10.6542 12.1529 10.6439 12.4193 10.6849C12.6549 10.7054 13.5258 11.8017 17.6547 17.1703ZM17.3985 26.5346L17.3883 34.2801L17.1424 33.9932L16.8863 33.7064V25.8994V18.1026L17.1424 18.4509L17.3985 18.7993V26.5346ZM34.4674 22.0573C33.0945 25.7149 29.816 29.1881 25.6461 31.4114C24.5498 32.0056 24.5498 31.9749 25.6973 31.2065C27.1829 30.2024 28.4533 29.1267 30.1131 27.4771C31.8446 25.7457 32.7257 24.6289 33.9039 22.672C34.3137 21.9856 34.6621 21.4221 34.6826 21.4221C34.703 21.4221 34.6006 21.709 34.4674 22.0573ZM3.1574 24.7211C3.52624 25.2436 4.37661 26.2375 5.0528 26.9341C6.88673 28.8398 8.28011 30.0078 10.8005 31.7495C11.4152 32.1696 9.18171 30.9196 8.33134 30.3664C5.25771 28.348 2.99347 25.8584 1.67182 23.0204C0.964882 21.5246 1.01611 21.3709 1.78452 22.6311C2.17384 23.2663 2.78857 24.2089 3.1574 24.7211Z" fill="currentColor"/>
<path d="M88.5525 14.8753C86.4317 15.3978 86.5342 15.3465 87.0157 15.6129C87.2411 15.7359 87.528 16.0023 87.6509 16.1867L87.8866 16.535V22.8052V29.0754L87.5895 29.4852C87.4255 29.7106 87.1284 29.9975 86.9235 30.1204C86.7186 30.2536 86.5547 30.3766 86.5547 30.3971C86.5547 30.4176 87.7841 30.438 89.28 30.438H92.0155L91.6774 30.2024C91.493 30.0795 91.1959 29.8028 91.0217 29.5877L90.7041 29.1881L90.6733 21.8217L90.6529 14.4552L90.4172 14.4654C90.2943 14.4654 89.4541 14.6499 88.5525 14.8753Z" fill="currentColor"/>
<path d="M81.954 14.8343C81.4929 15.0597 81.2266 15.5208 81.2266 16.0945C81.2266 16.9654 81.8106 17.5289 82.7121 17.5289C83.2961 17.5289 83.7367 17.3137 83.9928 16.8834C84.2592 16.4633 84.2592 15.7359 84.0031 15.3159C83.6342 14.7114 82.6712 14.486 81.954 14.8343Z" fill="currentColor"/>
<path d="M146.46 15.3261C145.455 15.5617 144.615 15.7871 144.585 15.8179C144.554 15.8383 144.646 15.8896 144.779 15.9306C144.923 15.9613 145.179 16.156 145.353 16.3506L145.671 16.7195V22.7335V28.7476L145.363 29.2803C145.179 29.5979 144.872 29.936 144.626 30.1L144.195 30.3868L145.609 30.4176C146.378 30.4278 147.617 30.4278 148.355 30.4176L149.707 30.3868L149.287 30.1102C149.021 29.936 148.775 29.6492 148.601 29.3008L148.334 28.7578V25.3768V22.0061L148.734 21.627C149.236 21.1557 149.841 20.9815 150.834 21.0328C151.521 21.0635 151.633 21.1045 151.931 21.3709C152.607 22.0163 152.638 22.1495 152.638 25.633C152.638 28.7168 152.638 28.7783 152.402 29.2189C152.238 29.5365 152.023 29.7516 151.685 29.936C150.855 30.3868 151.111 30.4381 154.164 30.4278C156.756 30.4278 156.879 30.4176 156.633 30.2537C156.162 29.9258 155.598 29.3828 155.445 29.0959C155.332 28.8603 155.301 28.2148 155.301 25.7866C155.301 21.9344 155.199 21.3914 154.287 20.5717C153.611 19.9672 153.242 19.8443 152.023 19.8443C150.773 19.8443 150.291 19.998 149.082 20.8074L148.334 21.2992L148.314 18.0923L148.283 14.8958L146.46 15.3261Z" fill="currentColor"/>
<path d="M65.8604 15.5515C66.1677 15.8281 66.5571 16.1662 66.7312 16.3199L67.0386 16.5863L67.0693 22.2827C67.1001 28.7681 67.182 28.1636 66.1472 29.3316L65.5325 30.0282H67.4587H69.3848L68.5549 29.1779C67.9402 28.5529 67.7045 28.2353 67.6533 27.9792C67.6226 27.7845 67.6123 25.4076 67.6226 22.713L67.6533 17.8055L72.315 24.0039C74.8763 27.4157 77.0689 30.2536 77.1816 30.3151C77.4684 30.4483 77.827 30.2946 77.95 29.977C78.0114 29.8131 78.0524 27.3132 78.0524 23.4609C78.0524 18.3382 78.0832 17.1498 78.1959 16.8731C78.2778 16.6785 78.6569 16.2277 79.036 15.8486L79.7429 15.1724H77.7963H75.8497L76.5873 15.8896C77.2328 16.5145 77.3352 16.6682 77.4377 17.1395C77.5094 17.5083 77.5402 19.0452 77.5197 21.9241L77.4889 26.1657L73.3395 20.6434L69.1901 15.1212L67.2435 15.0904L65.2969 15.0699L65.8604 15.5515Z" fill="currentColor"/>
<path d="M109.607 15.5413C109.607 15.572 109.822 15.8998 110.078 16.2584C110.816 17.2932 110.867 17.0678 108.633 23.2356L106.707 28.5427L105.959 29.2804C105.539 29.6902 105.058 30.1 104.873 30.2025L104.535 30.3869L105.795 30.4176C106.492 30.4279 107.588 30.4279 108.244 30.4176L109.443 30.3869L108.295 29.6287C107.66 29.2189 107.148 28.8296 107.148 28.7681C107.148 28.4402 108.131 26.0531 108.346 25.8482C108.592 25.6228 108.644 25.6228 111.133 25.6228C113.633 25.6228 113.674 25.6228 113.879 25.8482C114.104 26.094 114.934 28.2661 114.934 28.5939C114.934 28.973 114.709 29.2599 114.053 29.7619C113.695 30.0385 113.397 30.2742 113.397 30.2947C113.397 30.3152 114.873 30.3356 116.686 30.3356H119.975L119.473 29.9463C118.725 29.3418 118.213 28.7271 117.905 28.0407C117.752 27.6923 116.645 24.7929 115.447 21.5861C114.238 18.3895 113.193 15.7052 113.121 15.6232C113.008 15.5105 112.598 15.4798 111.287 15.4798C110.365 15.4798 109.607 15.5105 109.607 15.5413ZM111.297 18.2153C111.533 18.8198 113.705 24.9363 113.705 25.0183C113.705 25.0695 112.598 25.1105 111.092 25.1105C109.658 25.1105 108.48 25.09 108.48 25.0695C108.48 25.049 109.033 23.4712 109.709 21.5656C110.385 19.6599 110.939 18.0924 110.939 18.0719C110.939 17.9489 111.236 18.0719 111.297 18.2153Z" fill="currentColor"/>
<path d="M52.7139 19.4242L51.8021 19.6291L52.0684 19.875L52.3348 20.1209V23.0716C52.3348 24.6904 52.2938 26.135 52.2426 26.2682C52.1811 26.4116 52.0172 26.6473 51.8533 26.7907L51.5664 27.0571H52.9393H54.3019L53.9843 26.6985L53.6667 26.3296V24.5469C53.6667 22.8564 53.677 22.754 53.8819 22.5593C54.1892 22.2725 54.9576 22.17 55.2957 22.3544C55.7568 22.6106 55.8183 22.8872 55.8183 24.6596C55.8183 26.2682 55.808 26.3194 55.5621 26.5858C55.4289 26.7292 55.265 26.8522 55.2035 26.8522C55.1421 26.8522 55.1216 26.8931 55.1523 26.9546C55.1933 27.0161 55.767 27.0571 56.5559 27.0571H57.8878L57.519 26.6473L57.1502 26.2374V24.5674C57.1502 23.1638 57.1194 22.8462 56.9555 22.4774C56.5252 21.545 55.1318 21.3811 54.0765 22.1495L53.6667 22.4466L53.6462 20.8279L53.6155 19.2091L52.7139 19.4242Z" fill="currentColor"/>
<path d="M82.1298 19.7828C80.3779 20.2131 79.7939 20.3975 80.2344 20.3975C80.4803 20.3975 81.136 21.0123 81.2897 21.3913C81.4024 21.6475 81.4331 22.5183 81.4331 25.2744C81.4331 28.3172 81.4127 28.8705 81.2692 29.1676C81.1053 29.5057 80.7262 29.895 80.2037 30.2536C79.9578 30.4176 80.0808 30.4278 82.6933 30.4278L85.4494 30.438L85.0088 30.1C84.1174 29.4238 84.1584 29.6901 84.097 24.1883L84.0457 19.3218L82.1298 19.7828Z" fill="currentColor"/>
<path d="M138.101 19.4243C136.031 20.0082 134.628 21.4426 134.146 23.4814C133.951 24.3318 133.951 26.0223 134.146 26.801C134.607 28.5632 136.359 30.1205 138.121 30.3356C139.197 30.4586 140.498 30.2127 141.574 29.6697C142.137 29.3828 142.988 28.6349 143.234 28.2148L143.408 27.9075L142.547 28.2558C141.43 28.7066 140.324 28.932 139.73 28.85C138.5 28.6656 137.486 27.6718 136.994 26.1452C136.769 25.4178 136.707 23.5634 136.892 22.6823C137.332 20.6435 138.633 19.3116 139.842 19.6701C140.498 19.8648 141 20.4181 141.748 21.7397C142.127 22.4057 142.455 22.9384 142.486 22.9077C142.578 22.8052 142.988 19.9365 142.916 19.8648C142.875 19.8238 142.476 19.6906 142.035 19.5677C140.939 19.2808 138.89 19.2091 138.101 19.4243Z" fill="currentColor"/>
<path d="M161.869 19.537C160.589 19.8853 159.195 20.8689 158.54 21.9242C157.945 22.8565 157.73 23.6351 157.72 24.8031C157.71 25.674 157.761 26.0121 157.945 26.5756C158.437 27.9792 159.451 29.1267 160.783 29.7722C161.705 30.2229 162.32 30.3561 163.396 30.3459C165.004 30.3459 166.265 29.8234 167.402 28.6964C170.455 25.6842 169.01 20.6332 164.779 19.5267C164.031 19.3321 162.607 19.3423 161.869 19.537ZM163.334 20.3771C163.908 20.6947 164.728 21.5553 165.23 22.3954C165.425 22.7131 165.742 23.4405 165.947 24.0142C166.285 24.9978 166.306 25.131 166.316 26.3912C166.316 27.5796 166.285 27.7845 166.07 28.2558C165.937 28.5529 165.65 28.9525 165.435 29.1472C164.923 29.6185 164.451 29.7004 163.714 29.4648C163.242 29.3214 162.996 29.1472 162.361 28.5017C161.736 27.8767 161.49 27.5284 161.101 26.7498C160.415 25.3461 160.189 24.3421 160.24 22.918C160.281 21.627 160.466 21.084 161.05 20.5205C161.664 19.9263 162.402 19.8751 163.334 20.3771Z" fill="currentColor"/>
<path d="M45.0625 20.459C45.0625 20.9918 45.1035 21.3196 45.165 21.2991C45.2162 21.2787 45.4621 20.9406 45.708 20.5512L46.1588 19.834L46.7837 19.8033L47.4189 19.7726V22.9077C47.4189 26.2067 47.4087 26.2579 46.9272 26.7702L46.6608 27.0571H48.1976H49.7242L49.427 26.7907C48.9045 26.2989 48.8533 26.0325 48.8533 23.6556C48.8533 22.4569 48.884 21.0942 48.925 20.6229L48.9865 19.7828H49.5705H50.1647L50.595 20.5C50.8307 20.8996 51.0663 21.2479 51.1175 21.2787C51.1688 21.3094 51.2098 20.9406 51.2098 20.459V19.5779H48.1361H45.0625V20.459Z" fill="currentColor"/>
<path d="M122.926 19.9775C121.994 20.1926 121.103 20.3975 120.939 20.4385L120.652 20.5102L121.123 20.8074C122.025 21.3811 122.004 21.2889 122.004 25.3256V28.8603L121.707 29.3213C121.553 29.5774 121.236 29.936 121.021 30.1102L120.621 30.438H123.439L126.256 30.4278L125.949 30.2024C124.627 29.2188 124.668 29.3828 124.668 25.3461C124.668 21.4938 124.658 21.545 125.549 21.1045C125.949 20.9098 126.215 20.8688 126.922 20.8688C127.895 20.8688 128.254 21.002 128.705 21.5245L128.971 21.8524V25.2948C128.961 28.9115 128.92 29.2598 128.49 29.7414C128.387 29.8643 128.172 30.0385 127.998 30.1409C127.69 30.3356 127.721 30.3356 130.508 30.3356H133.325L132.793 29.977C131.809 29.3213 131.86 29.5262 131.819 25.5612C131.789 22.252 131.778 22.0573 131.563 21.5245C131.246 20.7356 130.805 20.2541 130.119 19.916C129.637 19.6804 129.412 19.6291 128.766 19.6291C128.09 19.6394 127.813 19.7111 126.451 20.2234C125.6 20.541 124.873 20.8074 124.832 20.8074C124.801 20.8074 124.77 20.5307 124.77 20.1926C124.77 19.8545 124.74 19.5779 124.699 19.5882C124.648 19.5882 123.859 19.7726 122.926 19.9775Z" fill="currentColor"/>
<path d="M171.642 20.0492C170.576 20.2848 169.674 20.4897 169.644 20.5C169.613 20.5 169.767 20.6024 169.972 20.7049C170.176 20.8176 170.484 21.0737 170.637 21.2889L170.924 21.6577V25.2026C170.924 29.2291 170.945 29.1266 170.054 29.8131C169.213 30.438 169.213 30.438 172.348 30.438C173.906 30.438 175.176 30.4176 175.176 30.3971C175.176 30.3766 174.961 30.2331 174.705 30.0692C174.449 29.9053 174.121 29.6082 173.967 29.4135L173.691 29.0549L173.66 25.8481C173.629 22.8462 173.639 22.6208 173.834 22.1905C174.09 21.6065 174.541 21.3196 175.207 21.3196C175.852 21.3196 176.334 21.5758 177.01 22.2929C177.307 22.6105 177.563 22.8564 177.574 22.8359C177.656 22.713 178.045 19.8648 177.994 19.7828C177.891 19.6086 176.672 19.6701 175.975 19.8853C175.289 20.0902 174.254 20.7049 173.896 21.1147L173.691 21.3401L173.639 20.4795L173.588 19.6189L171.642 20.0492Z" fill="currentColor"/>
<path d="M96.2369 19.8546C94.239 20.5717 93.0608 22.334 92.8456 24.9363C92.692 26.7497 93.5628 28.7066 94.9255 29.6082C96.3086 30.52 98.9212 30.6225 100.499 29.8234C101.257 29.434 101.985 28.6451 102.179 27.9997C102.241 27.7743 102.22 27.7845 101.698 28.1124C100.438 28.9218 99.2593 29.1472 98.1528 28.8091C96.4828 28.307 95.7861 27.2722 95.6426 25.0797L95.5914 24.2908H98.9622H102.333V23.9015C102.333 23.379 102.077 22.4467 101.78 21.8524C101.36 21.0328 100.847 20.541 99.9969 20.1209C99.2388 19.7419 99.1773 19.7316 97.9888 19.7009C97.0053 19.6804 96.6467 19.7111 96.2369 19.8546ZM98.6446 20.2951C99.0031 20.5513 99.29 21.002 99.5052 21.6578C99.6896 22.1905 99.915 23.5634 99.8433 23.6351C99.792 23.6966 95.6426 23.9835 95.5914 23.9322C95.5709 23.9117 95.6119 23.5327 95.6734 23.0921C95.8988 21.627 96.3393 20.7152 97.0463 20.2849C97.4766 20.0185 98.2655 20.0287 98.6446 20.2951Z" fill="currentColor"/>
<path d="M59.6594 21.7193C57.7436 22.6004 57.7026 25.9404 59.598 26.7805C60.1615 27.0264 61.3397 27.0366 61.9442 26.801C62.3437 26.6371 62.9892 26.0428 62.9892 25.8277C62.9892 25.7764 62.7433 25.8482 62.4564 25.9813C61.4114 26.4629 60.3152 26.217 59.8951 25.3974C59.7824 25.1925 59.6697 24.7621 59.639 24.4548L59.5775 23.881H61.3499H63.1224L63.0507 23.461C62.9175 22.6516 62.354 21.8729 61.729 21.6373C61.2577 21.4529 60.1205 21.5041 59.6594 21.7193ZM61.2885 21.9242C61.5241 22.1803 61.7495 22.8155 61.7598 23.2253V23.5429L61.0733 23.6044C59.9566 23.7171 59.6082 23.6966 59.6082 23.5224C59.6082 23.0512 59.8644 22.3135 60.1205 22.0369C60.4688 21.668 61.0118 21.6168 61.2885 21.9242Z" fill="currentColor"/>
</svg>
