<svg width="127" height="71" viewBox="0 0 127 71" fill="none" xmlns="http://www.w3.org/2000/svg">
<path d="M63.229 0.855556C61.9689 1.13248 60.8682 2.18479 60.5428 3.4171C60.2382 4.60095 60.5497 5.90249 61.3459 6.74018C61.5328 6.94095 61.6851 7.12095 61.6851 7.14864C61.6851 7.17633 60.9305 7.19018 60.0028 7.17633L58.3205 7.15556L58.0159 6.9271C57.552 6.58787 57.5312 6.60172 57.5312 7.3771C57.5312 7.93095 57.5589 8.0971 57.6697 8.2771C57.9259 8.70634 57.9813 8.71326 60.4666 8.71326H62.7236L62.682 9.00403C62.6613 9.17018 62.5297 10.6517 62.3774 12.3063L62.1074 15.311L62.2943 15.5671C62.7928 16.2387 65.7974 20.0602 65.8113 20.0463C65.8251 20.0394 65.7074 17.6302 65.562 14.7017C65.4097 11.7663 65.2851 9.22557 65.2851 9.03864V8.71326H67.5282C69.7367 8.71326 69.7643 8.71326 69.9997 8.55403C70.3667 8.31172 70.4774 8.01403 70.4774 7.30787C70.4774 6.96864 70.4497 6.70556 70.4082 6.70556C70.3736 6.70556 70.2005 6.80941 70.0274 6.9271L69.702 7.15556L68.0128 7.17633C67.0851 7.19018 66.3236 7.18326 66.3236 7.16941C66.3236 7.15556 66.469 6.99633 66.642 6.80249C68.539 4.7671 67.5282 1.4994 64.7936 0.855556C64.2605 0.730942 63.8036 0.730942 63.229 0.855556ZM64.5582 2.35094C65.6036 2.63479 66.289 3.75633 66.0536 4.79479C65.7282 6.26249 64.0528 6.92018 62.8136 6.06864C62.2528 5.68787 61.9343 5.04402 61.9413 4.31018C61.9482 3.42402 62.5851 2.61402 63.4851 2.3371C63.7413 2.26094 64.2466 2.26787 64.5582 2.35094ZM63.4089 11.9117C63.3466 13.6771 63.2913 15.124 63.2843 15.1379C63.2843 15.1448 63.1666 15.034 63.0351 14.8817L62.7928 14.6186L62.9728 11.8217C63.0697 10.2848 63.1597 8.95557 63.1805 8.86557C63.2013 8.76172 63.2636 8.71326 63.3674 8.71326H63.5197L63.4089 11.9117Z" fill="currentColor"/>
<path d="M53.6954 11.6833L53.1415 11.7248L53.8961 12.4171C55.0661 13.4902 55.2946 13.7325 55.5023 14.1271L55.6961 14.4941L55.7169 22.5248C55.7307 28.1187 55.7169 30.6595 55.6615 30.9018C55.5507 31.4348 55.1007 32.0579 54.1246 33.0272C53.64 33.5118 53.2384 33.9272 53.2384 33.9479C53.2384 33.9687 54.5677 33.9825 56.1877 33.9825C57.8077 33.9825 59.1231 33.9549 59.1092 33.9272C59.1023 33.8925 58.6661 33.4702 58.1538 32.9856C57.1707 32.0649 56.783 31.5525 56.5961 30.9087C56.5061 30.6179 56.4923 29.8148 56.4923 25.9864C56.4923 23.4664 56.513 20.0948 56.5407 18.4887L56.5823 15.5741L57.0115 16.1418C57.2469 16.4533 58.4584 18.0871 59.6977 19.7694L61.9615 22.8295V30.8395V38.8495L61.7469 39.1887C61.0754 40.2341 59.8223 40.8502 58.6038 40.7326C56.963 40.5733 54.6092 39.5626 52.3384 38.0464C49.9638 36.461 47.5615 34.2179 45.5884 31.7672L45.1107 31.1787L46.5507 31.1441L47.9838 31.1095L44.5015 28.5272C41.6838 26.4364 41.0123 25.9656 40.9984 26.0764C40.9638 26.3118 41.3238 27.9318 41.6007 28.7695C42.8884 32.681 45.4361 36.1772 49.1538 39.1402C51.7777 41.2379 55.3777 43.1833 59.0538 44.5056C60.9854 45.1979 62.5569 46.0841 63.2354 46.8664C63.3808 47.0326 63.5884 47.3372 63.7061 47.531C63.8238 47.7456 63.9623 47.8979 64.0246 47.8979C64.0938 47.8979 64.2184 47.7595 64.3154 47.5726C64.8761 46.5064 66.3715 45.4749 68.4346 44.7203C74.1323 42.6295 78.0854 40.241 81.3531 36.9179C84.0808 34.1279 85.8946 31.061 86.7462 27.7864C86.9054 27.1772 87.1062 26.0141 87.0646 25.9656C87.0439 25.9518 85.4654 27.101 83.5546 28.5272L80.0723 31.1095L81.5054 31.1441L82.9385 31.1787L82.3846 31.8641C79.6915 35.1941 76.4377 37.8941 73.2115 39.4864C71.3423 40.4072 69.6392 40.8641 68.6561 40.7049C67.7284 40.5595 66.8769 40.0126 66.3369 39.2233L66.1154 38.9049L66.1292 33.7264L66.15 28.5479L68.1092 31.2272C69.1823 32.6949 70.1931 34.0102 70.3385 34.1487C70.5392 34.3287 70.6777 34.3979 70.8438 34.3979C71.1831 34.3979 71.6608 34.1279 71.8269 33.8441C71.9654 33.6018 71.9654 33.5187 71.9515 27.0248C71.9377 23.4041 71.9585 19.1394 71.9861 17.5402L72.0415 14.6325L72.2354 14.2517C72.5192 13.7048 73.0038 13.1371 73.8 12.3964L74.4923 11.7594H71.5431H68.5869L69.03 12.1541C69.93 12.9502 70.5808 13.6633 70.8231 14.1133L71.0654 14.5633L71.0861 18.6133C71.1138 23.1133 71.0446 28.1118 70.9615 28.0841C70.9269 28.0702 68.2615 24.4771 65.0423 20.1018C61.8161 15.7194 59.0815 12.0433 58.9569 11.9187L58.7423 11.6971L56.4923 11.6694C55.253 11.6487 53.993 11.6556 53.6954 11.6833ZM63.7131 22.8433L70.11 31.1579L70.1585 31.7187C70.1861 32.0233 70.1931 32.2795 70.1861 32.2864C70.1723 32.3072 57.7107 15.9202 56.9077 14.8194L56.6861 14.5287H57.0046H57.3161L63.7131 22.8433ZM63.4015 34.9864L63.3808 45.0041L63.0554 44.5541L62.7231 44.1041V34.0864V24.0618L63.0692 24.5187L63.4154 24.9756L63.4015 34.9864ZM85.4308 29.1502C83.7831 33.5533 80.2662 37.5272 75.3646 40.511C74.4646 41.0579 72.4846 42.1241 72.4846 42.0618C72.4846 42.041 72.7892 41.8402 73.1631 41.6118C74.5754 40.7395 75.9185 39.7426 77.4692 38.4064C78.5215 37.4995 81.3808 34.6472 82.0592 33.8233C82.98 32.7156 84.3092 30.7287 85.2646 29.0395C85.4862 28.6379 85.68 28.3264 85.6939 28.3402C85.7146 28.3541 85.59 28.721 85.4308 29.1502ZM43.2 29.7248C43.9684 31.0333 44.9307 32.4664 45.6923 33.4356C46.3984 34.3425 49.3407 37.3541 50.4692 38.3164C52.0407 39.6664 53.8615 41.0095 55.0938 41.7364C55.3638 41.8956 55.5923 42.041 55.5923 42.0549C55.5923 42.1241 53.7092 41.1272 52.7538 40.5456C48.4061 37.9149 45.3046 34.7095 43.38 30.8672C42.9438 29.981 42.3692 28.5825 42.3692 28.4025C42.3692 28.3333 42.4107 28.3887 43.2 29.7248Z" fill="currentColor"/>
<path d="M41.4362 55.645C39.6223 56.095 39.5739 56.1088 39.7954 56.1988C40.2177 56.3788 40.55 56.6696 40.7369 57.0434L40.9169 57.4103V63.1773C40.9169 69.4357 40.9308 69.145 40.5362 69.6642C40.4393 69.7957 40.1831 70.0173 39.9754 70.1627C39.7746 70.3011 39.6016 70.4327 39.6016 70.4465C39.6016 70.4534 40.7646 70.4673 42.177 70.4673H44.7593L44.3993 70.225C44.0116 69.9688 43.8246 69.7404 43.617 69.2765C43.4854 68.9857 43.4785 68.785 43.4785 62.0696C43.4785 56.5934 43.4577 55.1673 43.3954 55.1742C43.347 55.1811 42.4677 55.3888 41.4362 55.645Z" fill="currentColor"/>
<path d="M35.4527 55.472C35.0996 55.5897 34.712 55.9359 34.5735 56.2544C34.3243 56.8428 34.5527 57.6044 35.0858 57.9436C35.8612 58.4351 36.8858 58.1582 37.2527 57.3551C37.7512 56.2544 36.6366 55.0913 35.4527 55.472Z" fill="currentColor"/>
<path d="M97.9263 55.7903C97.6632 55.8596 96.8809 56.0465 96.1955 56.2127L94.9493 56.5034L95.2263 56.6211C95.5586 56.7665 95.8286 57.0088 95.9809 57.3065C96.0847 57.5003 96.0916 58.0819 96.0778 63.2119L96.057 68.9096L95.8701 69.2557C95.6486 69.6781 95.3786 69.9688 94.9978 70.225C94.8386 70.3288 94.707 70.4257 94.707 70.4396C94.707 70.4534 95.884 70.4673 97.317 70.4673H99.9201L99.5463 70.2042C99.117 69.9065 98.7709 69.3804 98.6601 68.8611C98.6117 68.6534 98.584 67.3934 98.584 65.5934V62.665L98.7432 62.3604C99.0478 61.7927 99.8093 61.4673 100.876 61.4673C101.589 61.4673 101.956 61.6265 102.302 62.0834C102.717 62.6234 102.738 62.7827 102.738 65.8911C102.738 67.5181 102.71 68.8057 102.669 68.9442C102.53 69.4357 102.226 69.8096 101.782 70.0381C101.388 70.2319 101.367 70.2527 101.485 70.3565C101.596 70.4534 101.886 70.4673 104.164 70.4534L106.719 70.4327L106.282 70.1281C106.04 69.955 105.729 69.6642 105.59 69.4704L105.334 69.1242L105.292 66.0365C105.251 62.7688 105.23 62.5265 104.898 61.8204C104.337 60.6088 102.766 60.0273 101.173 60.4288C100.495 60.6019 99.664 61.0104 99.0686 61.4604L98.6186 61.7996L98.5978 58.7257C98.584 56.3303 98.5632 55.6519 98.494 55.6588C98.4524 55.6588 98.1963 55.7211 97.9263 55.7903Z" fill="currentColor"/>
<path d="M19.5236 56.0117C20.8943 57.2232 20.8943 57.2302 20.9774 57.6109C21.0259 57.8602 21.0466 59.5702 21.0328 63.0248L21.012 68.0786L20.8182 68.4802C20.6936 68.7225 20.382 69.124 20.0289 69.5048L19.4405 70.121H21.3305H23.2274L22.4589 69.3733C21.7736 68.7156 21.6697 68.5909 21.5728 68.2586C21.4759 67.9263 21.462 67.2894 21.462 63.1356C21.462 58.4902 21.462 58.3932 21.5936 58.5248C21.6628 58.6009 23.7051 61.3009 26.1213 64.5202C29.5897 69.1379 30.5659 70.391 30.7113 70.4256C30.9328 70.481 31.2582 70.3633 31.3413 70.204C31.369 70.1348 31.4105 67.3102 31.4313 63.9248L31.4659 57.7632L31.632 57.4517C31.722 57.2786 32.082 56.8702 32.4282 56.5379L33.0582 55.9355L31.1959 55.9286H29.3336L29.8113 56.3579C30.0743 56.6002 30.3928 56.8979 30.5105 57.0225C30.9466 57.4655 30.9466 57.514 30.9328 62.1802L30.912 66.3894L27.0005 61.1832C24.8474 58.3171 23.0474 55.9355 22.9989 55.8802C22.9228 55.8109 22.5213 55.7902 21.0951 55.7902L19.2812 55.7971L19.5236 56.0117Z" fill="currentColor"/>
<path d="M61.547 56.171C61.547 56.1987 61.727 56.4756 61.9555 56.7802C62.5301 57.5902 62.537 57.6041 62.4955 58.2064C62.4678 58.6771 62.2808 59.231 60.6608 63.6618C59.6639 66.3756 58.8193 68.6533 58.7847 68.7225C58.667 68.9441 57.4762 70.0379 57.1301 70.2387L56.8047 70.4325L57.9678 70.4533C58.6047 70.4602 59.6432 70.4602 60.2732 70.4533L61.4293 70.4325L60.3147 69.6918L59.207 68.951L59.5462 68.0302C60.2385 66.161 60.2247 66.1887 60.467 66.0364C60.6885 65.9048 60.8062 65.8979 63.0285 65.8979C65.6178 65.8979 65.6593 65.9048 65.867 66.3341C66.1993 67.0402 66.6701 68.4802 66.6701 68.7987C66.6701 69.2002 66.5662 69.3387 65.7562 69.941C65.4585 70.1625 65.2162 70.3564 65.2162 70.3702C65.2162 70.3841 66.6355 70.3979 68.3732 70.3979H71.537L71.0939 70.0656C70.4224 69.5533 69.8616 68.9095 69.6055 68.3556C69.4878 68.0856 68.4285 65.3164 67.2585 62.1941C65.8047 58.3171 65.0778 56.4617 64.967 56.3441L64.8009 56.171L63.1739 56.1502C62.2808 56.1364 61.547 56.1502 61.547 56.171ZM63.2639 58.8848C63.3539 59.1479 65.507 65.1502 65.5416 65.2541C65.5693 65.3233 65.0432 65.3441 63.0562 65.3441H60.5293L61.7062 62.021C62.7862 58.9817 62.897 58.6979 63.0424 58.6979C63.1462 58.6979 63.2155 58.7602 63.2639 58.8848Z" fill="currentColor"/>
<path d="M7.16454 59.9857C6.67301 60.1103 6.29916 60.2141 6.34762 60.2141C6.38916 60.2211 6.5207 60.3041 6.63839 60.4011L6.85301 60.5811V63.5234C6.85301 66.3757 6.84608 66.4795 6.70762 66.7011C6.63147 66.8257 6.48608 66.9918 6.38224 67.068L6.19531 67.2065L7.46916 67.2134H8.73608L8.52147 67.0126C8.40378 66.9018 8.27916 66.7288 8.23762 66.6318C8.19608 66.5211 8.16839 65.7457 8.16839 64.7972C8.16839 63.1841 8.16839 63.1495 8.32762 63.0041C8.54224 62.8034 8.81916 62.7134 9.24839 62.6995C9.70532 62.6857 9.93378 62.8311 10.1138 63.2395C10.2384 63.5165 10.2522 63.6826 10.2315 65.0257C10.2107 66.4034 10.1969 66.528 10.0653 66.708C9.98916 66.8118 9.82301 66.9503 9.70532 67.0126C9.58762 67.0749 9.50455 67.1441 9.53224 67.1718C9.55301 67.1926 10.1622 67.2134 10.8822 67.2134H12.1838L11.8376 66.8811L11.4915 66.5488V64.9565C11.4915 63.6826 11.4707 63.2949 11.3807 63.0388C11.1453 62.3534 10.3838 61.9726 9.57378 62.1457C9.12378 62.2357 8.65993 62.4503 8.36916 62.6926L8.16839 62.8657V61.3357C8.16839 60.498 8.14762 59.7988 8.11993 59.7849C8.08531 59.7711 7.66301 59.8611 7.16454 59.9857Z" fill="currentColor"/>
<path d="M89.1674 59.9096C87.9766 60.1658 87.2012 60.5742 86.3981 61.3912C85.4081 62.3881 84.9651 63.4889 84.8958 65.1365C84.8197 66.9158 85.2143 68.0166 86.3427 69.145C86.8689 69.6712 87.5058 70.0589 88.1981 70.2666C89.6035 70.6958 91.6804 70.2527 92.9128 69.2627C93.2935 68.9581 93.9235 68.2104 93.8612 68.1481C93.8474 68.1273 93.5635 68.2242 93.2312 68.3558C91.6874 68.9789 90.5728 69.1312 89.8112 68.8266C88.5304 68.3142 87.7758 67.0819 87.5751 65.1781C87.4504 63.9665 87.6512 62.7619 88.1428 61.7512C88.8074 60.3942 89.8389 59.8473 90.8081 60.325C91.3274 60.5881 91.6251 60.955 92.352 62.2427C92.712 62.8796 93.0166 63.385 93.0304 63.3781C93.0374 63.3642 93.1412 62.7689 93.252 62.0489C93.3628 61.3289 93.4735 60.6573 93.4874 60.5604C93.522 60.3873 93.4943 60.3735 93.0166 60.235C91.6735 59.8404 90.0881 59.7088 89.1674 59.9096Z" fill="currentColor"/>
<path d="M35.2057 60.3457C33.3849 60.8027 33.3434 60.8165 33.5649 60.9065C34.008 61.0934 34.3472 61.398 34.5203 61.765L34.6865 62.125V65.4827C34.6865 67.4627 34.6588 68.9373 34.6172 69.0757C34.5134 69.4496 34.2296 69.8027 33.7796 70.1281C33.558 70.2942 33.3711 70.4396 33.3711 70.4465C33.3711 70.4604 34.5342 70.4673 35.9465 70.4673H38.5288L38.1688 70.225C37.7949 69.9688 37.4626 69.5534 37.3311 69.1588C37.2688 68.9927 37.248 67.6496 37.248 64.4027C37.248 60.8234 37.2273 59.875 37.1649 59.8819C37.1165 59.8819 36.2373 60.0965 35.2057 60.3457Z" fill="currentColor"/>
<path d="M112.154 59.9579C110.188 60.2348 108.527 61.571 107.855 63.4125C106.796 66.3133 108.492 69.4425 111.573 70.2664C111.981 70.3771 112.334 70.4187 112.95 70.4187C113.975 70.4256 114.487 70.3079 115.47 69.8302C116.093 69.5325 116.273 69.401 116.793 68.8887C117.471 68.2102 117.866 67.601 118.157 66.7633C118.33 66.251 118.343 66.1263 118.343 65.171C118.343 64.2156 118.33 64.091 118.157 63.5787C117.873 62.7687 117.464 62.1317 116.834 61.4948C115.976 60.6363 114.868 60.0963 113.663 59.944C113.013 59.8679 112.784 59.8679 112.154 59.9579ZM112.812 60.8025C113.38 61.0794 114.3 62.014 114.723 62.7479C116.128 65.171 116.239 68.1479 114.958 69.2764C114.356 69.8094 113.643 69.8164 112.798 69.3179C110.25 67.7879 109.018 62.7687 110.749 61.0171C111.247 60.5117 112.043 60.4356 112.812 60.8025Z" fill="currentColor"/>
<path d="M0 60.9895C0 61.4741 0.0276923 61.8064 0.0623078 61.7857C0.0969232 61.758 0.318462 61.4326 0.553847 61.0518L0.983078 60.3595H1.59923H2.21539V63.2811C2.21539 66.5418 2.21539 66.5141 1.73077 66.9849L1.49539 67.2134H2.9077H4.32001L4.08462 66.9849C3.6 66.5141 3.6 66.5418 3.6 63.2811V60.3595H4.21616H4.83231L5.26155 61.0518C5.49693 61.4326 5.71847 61.758 5.75308 61.7857C5.7877 61.8064 5.81539 61.4741 5.81539 60.9895V60.1518H2.9077H0V60.9895Z" fill="currentColor"/>
<path d="M49.5344 60.2211C47.3398 60.5673 45.9275 62.305 45.609 65.0396C45.429 66.5973 45.9552 68.155 47.0144 69.228C47.8382 70.0588 48.8282 70.4188 50.2959 70.4257C52.2898 70.4327 53.7367 69.7403 54.3598 68.4803C54.4775 68.238 54.5605 68.0303 54.5467 68.0096C54.5259 67.9957 54.3736 68.0788 54.2075 68.1965C53.7782 68.4873 52.989 68.8542 52.5044 68.9788C51.0021 69.3665 49.3475 68.695 48.7105 67.428C48.4613 66.9365 48.3298 66.3342 48.2744 65.4273L48.2328 64.6519H51.4729H54.7129L54.6713 64.1811C54.4982 62.215 53.3629 60.768 51.6598 60.3249C51.1267 60.1865 50.0813 60.138 49.5344 60.2211ZM50.9121 60.6711C51.5975 60.9965 52.1305 62.1319 52.2482 63.5234L52.2898 64.015L51.9852 64.0565C51.819 64.0773 51.1336 64.1257 50.469 64.1673C49.8044 64.2088 49.0221 64.2573 48.7313 64.278L48.2121 64.3196L48.2675 63.745C48.3436 62.9488 48.5513 62.1665 48.8144 61.668C49.0636 61.2042 49.5482 60.7403 49.8736 60.6434C50.2129 60.5465 50.6698 60.5603 50.9121 60.6711Z" fill="currentColor"/>
<path d="M74.388 60.4981C73.5918 60.6781 72.7541 60.8651 72.5256 60.9135L72.1172 60.9966L72.3941 61.1489C72.8856 61.4327 73.1141 61.6335 73.301 61.952L73.488 62.2635V65.552V68.8404L73.2872 69.2489C73.0933 69.6504 72.6849 70.1212 72.3456 70.3428C72.1864 70.4535 72.3387 70.4604 74.838 70.4604C77.1987 70.4604 77.4895 70.4535 77.3649 70.3635C76.7557 69.9135 76.4718 69.6574 76.278 69.3735L76.0495 69.0481L76.0287 65.7943C76.0218 64.0012 76.0287 62.4712 76.0495 62.3812C76.1187 62.0904 76.5618 61.6889 76.9703 61.5297C77.5172 61.322 78.4864 61.2735 79.0126 61.4258C79.4349 61.5504 79.8364 61.8481 80.0026 62.1666C80.148 62.4574 80.148 68.6881 79.9957 69.2004C79.878 69.5951 79.4557 70.1143 79.1164 70.2804C78.9018 70.3912 79.0472 70.3981 81.581 70.3981H84.281L83.9349 70.1835C83.5472 69.9412 83.201 69.6297 82.9864 69.3251C82.8341 69.1174 82.8341 69.062 82.7995 65.7943C82.7649 62.5543 82.758 62.4574 82.6057 62.0558C82.1141 60.7474 81.131 60.0966 79.7672 60.1658C79.1787 60.2004 78.6457 60.3666 76.1741 61.3081C76.1049 61.3358 76.0841 61.1974 76.0841 60.7474C76.0841 60.2212 76.0703 60.152 75.9664 60.1589C75.8972 60.1658 75.191 60.3181 74.388 60.4981Z" fill="currentColor"/>
<path d="M121.431 60.4357C120.767 60.5811 119.929 60.768 119.569 60.8511L118.925 60.9965L119.271 61.1972C119.687 61.4326 120.102 61.8965 120.151 62.1872C120.171 62.3049 120.185 63.9042 120.171 65.7388L120.151 69.0688L119.943 69.3734C119.825 69.5326 119.541 69.7957 119.32 69.9549C118.545 70.4811 118.496 70.4673 121.563 70.4673C123.051 70.4673 124.27 70.4534 124.27 70.4396C124.27 70.4257 124.131 70.3288 123.958 70.2249C123.508 69.9688 123.183 69.6642 122.989 69.3319L122.823 69.048L122.809 66.0642C122.802 62.7134 122.809 62.658 123.266 62.1872C124.048 61.3703 125.391 61.7511 126.34 63.0665C126.458 63.2257 126.555 63.3295 126.555 63.2949C126.555 63.2603 126.665 62.5819 126.797 61.7788C126.928 60.9826 127.018 60.3111 126.998 60.2903C126.977 60.2695 126.714 60.2419 126.409 60.228C125.343 60.1795 124.215 60.588 123.287 61.3634L122.816 61.7442V60.948C122.816 60.3526 122.795 60.1519 122.733 60.1588C122.685 60.1588 122.096 60.2834 121.431 60.4357Z" fill="currentColor"/>
<path d="M14.0137 62.0904C13.4875 62.2981 13.1275 62.6512 12.8437 63.2189C12.5183 63.8766 12.4006 64.652 12.5252 65.2543C12.8091 66.5766 13.7783 67.2966 15.1422 67.1928C15.8137 67.1443 16.2429 66.9989 16.596 66.6943C16.8383 66.4866 17.136 66.0435 17.0737 65.9812C17.0599 65.9674 16.9006 66.0505 16.7275 66.1681C15.8899 66.6943 14.8583 66.5974 14.2768 65.9397C14.0345 65.6558 13.9375 65.3651 13.8752 64.7005L13.8268 64.2366H15.5091H17.1914L17.1429 63.8697C17.046 63.122 16.6237 62.4851 16.0352 62.1804C15.5437 61.9243 14.5399 61.8828 14.0137 62.0904ZM15.3914 62.2981C15.606 62.4643 15.8345 63.0528 15.8968 63.5789L15.9452 63.9597H15.6337C15.4606 63.9597 14.9829 63.9805 14.5745 64.0081L13.8268 64.0497L13.8752 63.6758C13.9514 63.0874 14.1175 62.6512 14.3737 62.3951C14.5745 62.2012 14.6645 62.1597 14.9137 62.1597C15.1075 62.1597 15.2737 62.2081 15.3914 62.2981Z" fill="currentColor"/>
</svg>
