<svg width="85" height="86" viewBox="0 0 85 86" fill="none" xmlns="http://www.w3.org/2000/svg">
<path d="M43.9728 79.281C43.8438 79.281 43.7149 79.2512 43.5958 79.1818C42.8913 78.7651 42.0877 78.7651 41.3832 79.1818C41.155 79.3108 40.8673 79.3108 40.6391 79.1818C40.4109 79.0528 40.272 78.8047 40.272 78.5369V69.8751C34.5868 69.4187 29.1397 67.1566 24.794 63.4657L18.6623 69.5973C18.4738 69.7858 18.2059 69.8553 17.948 69.7858C17.69 69.7164 17.4916 69.5179 17.4221 69.26C17.3229 68.8631 17.1245 68.5258 16.8566 68.2579C16.5887 67.99 16.2513 67.8015 15.8545 67.6923C15.5965 67.6229 15.3981 67.4244 15.3286 67.1665C15.2592 66.9085 15.3286 66.6406 15.5171 66.4521L21.6488 60.3204C17.9579 55.9747 15.7056 50.5276 15.2393 44.8424H6.57759C6.3097 44.8424 6.07158 44.7035 5.93267 44.4753C5.80369 44.2471 5.80369 43.9594 5.93267 43.7312C6.14103 43.374 6.24025 43.0069 6.24025 42.62C6.24025 42.233 6.14103 41.8659 5.93267 41.5087C5.80369 41.2805 5.80369 40.9928 5.93267 40.7646C6.06166 40.5364 6.3097 40.3975 6.57759 40.3975H15.2492C15.7056 34.7123 17.9678 29.2652 21.6587 24.9195L15.527 18.7878C15.3385 18.5993 15.2691 18.3314 15.3385 18.0735C15.408 17.8155 15.6064 17.6171 15.8644 17.5476C16.2613 17.4484 16.5986 17.2499 16.8665 16.9821C17.1344 16.7142 17.3229 16.3768 17.432 15.98C17.5015 15.722 17.6999 15.5236 17.9579 15.4541C18.2159 15.3846 18.4837 15.4541 18.6723 15.6426L24.8039 21.7743C29.1497 18.0834 34.5967 15.8311 40.2819 15.3648V6.70308C40.2819 6.43519 40.4208 6.19707 40.649 6.05816C40.8772 5.92918 41.165 5.92918 41.3932 6.05816C42.0976 6.47488 42.9013 6.47488 43.6057 6.05816C43.8339 5.92918 44.1217 5.92918 44.3499 6.05816C44.5781 6.18715 44.7269 6.43519 44.7269 6.70308V15.3747C50.4121 15.8311 55.8591 18.0933 60.2049 21.7842L66.3365 15.6525C66.5251 15.464 66.7929 15.3946 67.0509 15.464C67.3089 15.5335 67.5073 15.7319 67.5768 15.9899C67.6859 16.3867 67.8744 16.7241 68.1423 16.992C68.4102 17.2599 68.7475 17.4484 69.1444 17.5575C69.4024 17.627 69.6008 17.8254 69.6703 18.0834C69.7397 18.3413 69.6703 18.6092 69.4818 18.7977L63.3501 24.9294C67.041 29.2752 69.3032 34.7222 69.7596 40.4074H78.4312C78.6991 40.4074 78.9372 40.5463 79.0761 40.7745C79.215 41.0027 79.2051 41.2904 79.0761 41.5187C78.8678 41.8758 78.7685 42.2429 78.7685 42.6299C78.7685 43.0168 78.8678 43.3839 79.0761 43.7411C79.2051 43.9693 79.2051 44.2571 79.0761 44.4853C78.9471 44.7135 78.6991 44.8524 78.4312 44.8524H69.7496C69.2932 50.5376 67.0311 55.9846 63.3402 60.3304L69.4718 66.462C69.6603 66.6505 69.7298 66.9184 69.6603 67.1764C69.5909 67.4344 69.3925 67.6328 69.1345 67.7023C68.7376 67.8114 68.4003 67.9999 68.1324 68.2678C67.8645 68.5357 67.676 68.873 67.5668 69.2699C67.4974 69.5279 67.299 69.7263 67.041 69.7958C66.783 69.8652 66.5151 69.7958 66.3266 69.6072L60.195 63.4756C55.8492 67.1665 50.4021 69.4187 44.717 69.8851V78.5567C44.717 78.8246 44.5781 79.0627 44.3399 79.2016C44.2308 79.2512 44.1018 79.281 43.9728 79.281ZM42.4945 77.3958C42.7425 77.3958 42.9906 77.4256 43.2386 77.4752V69.1806C43.2386 68.7837 43.5462 68.4662 43.9331 68.4464C49.7672 68.1289 55.3829 65.7973 59.7386 61.9079C60.0362 61.65 60.4827 61.6599 60.7605 61.9377L66.6243 67.7915C66.7533 67.5832 66.912 67.3947 67.0906 67.2161C67.2692 67.0375 67.4577 66.8787 67.6661 66.7498L61.8122 60.8959C61.5344 60.6181 61.5245 60.1716 61.7824 59.8839C65.6817 55.5282 68.0034 49.9224 68.3209 44.0785C68.3407 43.6816 68.6682 43.3839 69.0551 43.3839H77.3497C77.3001 43.1359 77.2704 42.8978 77.2704 42.6398C77.2704 42.3918 77.3001 42.1437 77.3497 41.8957H69.0551C68.6582 41.8957 68.3407 41.5881 68.3209 41.2012C68.0034 35.3671 65.6718 29.7514 61.7824 25.3957C61.5245 25.108 61.5344 24.6615 61.8122 24.3837L67.6661 18.5199C67.4577 18.391 67.2692 18.2322 67.0906 18.0536C66.912 17.875 66.7533 17.6865 66.6243 17.4781L60.7704 23.332C60.4926 23.6098 60.0461 23.6197 59.7485 23.3618C55.3928 19.4625 49.787 17.1408 43.9431 16.8233C43.5561 16.8035 43.2485 16.476 43.2485 16.0891V7.77463C42.7624 7.87385 42.2564 7.87385 41.7702 7.77463V16.0593C41.7702 16.4562 41.4626 16.7737 41.0757 16.7935C35.2417 17.121 29.6259 19.4427 25.2702 23.332C24.9825 23.59 24.5261 23.58 24.2483 23.3022L18.3944 17.4484C18.2555 17.6567 18.1067 17.8453 17.9281 18.0238C17.7495 18.2024 17.561 18.3612 17.3527 18.4902L23.2065 24.3539C23.4843 24.6318 23.4942 25.0782 23.2363 25.366C19.337 29.7216 17.0153 35.3374 16.6978 41.1714C16.678 41.5683 16.3506 41.8659 15.9636 41.8659H7.64915C7.69875 42.104 7.72852 42.3521 7.72852 42.61C7.72852 42.8581 7.69875 43.1061 7.64915 43.3542H15.9438C16.3406 43.3542 16.6581 43.6618 16.678 44.0487C16.9955 49.8827 19.3271 55.4985 23.2164 59.8541C23.4744 60.1419 23.4645 60.5883 23.1867 60.8661L17.3328 66.72C17.5412 66.8589 17.7297 67.0077 17.9083 67.1863C18.0869 67.3649 18.2456 67.5534 18.3746 67.7618L24.2384 61.9079C24.5162 61.6301 24.9627 61.6202 25.2603 61.8782C29.616 65.7774 35.2218 68.0991 41.0657 68.4166C41.4626 68.4365 41.7603 68.7639 41.7603 69.1508V77.4455C41.9984 77.4157 42.2464 77.3958 42.4945 77.3958ZM43.9728 64.0014C43.7843 64.0014 43.6057 63.932 43.4668 63.803C43.318 63.6641 43.2287 63.4657 43.2287 63.2672V49.2279C42.7227 49.2973 42.2564 49.2973 41.7503 49.2279V63.2573C41.7503 63.4657 41.661 63.6542 41.5122 63.7931C41.3634 63.932 41.165 64.0014 40.9566 63.9915C36.3033 63.6641 31.9774 61.8782 28.4551 58.8223C28.2964 58.6833 28.2071 58.4948 28.1972 58.2865C28.1873 58.0781 28.2666 57.8797 28.4155 57.7408L38.3472 47.8091C37.9602 47.5015 37.613 47.1443 37.3054 46.7673L27.3737 56.699C27.2248 56.8478 27.0363 56.9371 26.828 56.9173C26.6196 56.9073 26.4311 56.8181 26.2922 56.6593C23.2363 53.1371 21.4504 48.8112 21.113 44.1578C21.1031 43.9495 21.1725 43.7511 21.3115 43.6022C21.4504 43.4534 21.6488 43.3641 21.8572 43.3641H35.8866C35.8568 43.1161 35.837 42.868 35.837 42.62C35.837 42.3818 35.8568 42.1338 35.8866 41.8758H21.8572C21.6488 41.8758 21.4603 41.7865 21.3115 41.6377C21.1626 41.4889 21.1031 41.2904 21.113 41.0821C21.4404 36.4288 23.2363 32.1029 26.2922 28.5806C26.4311 28.4219 26.6196 28.3326 26.828 28.3227C27.0462 28.2929 27.2348 28.3921 27.3737 28.5409L37.3054 38.4727C37.613 38.0857 37.9602 37.7384 38.3472 37.4309L28.4254 27.4992C28.2766 27.3503 28.1972 27.1519 28.2071 26.9535C28.217 26.7451 28.3063 26.5566 28.4651 26.4177C31.9873 23.3618 36.3132 21.5758 40.9665 21.2385C41.1749 21.2187 41.3733 21.298 41.5221 21.4369C41.671 21.5758 41.7603 21.7743 41.7603 21.9826V36.0121C42.2663 35.9426 42.7326 35.9426 43.2386 36.0121V21.9826C43.2386 21.7743 43.3279 21.5758 43.4767 21.4369C43.6256 21.298 43.824 21.2286 44.0324 21.2385C48.6857 21.5659 53.0116 23.3618 56.5338 26.4177C56.6926 26.5566 56.7819 26.7451 56.7918 26.9535C56.8017 27.1618 56.7223 27.3603 56.5735 27.4992L46.6319 37.4408C47.0188 37.7484 47.3661 38.1056 47.6737 38.4826L57.6054 28.5509C57.7542 28.402 57.9328 28.3127 58.1511 28.3326C58.3594 28.3425 58.5479 28.4318 58.6868 28.5906C61.7428 32.1128 63.5287 36.4387 63.866 41.092C63.8759 41.3004 63.8065 41.4988 63.6676 41.6476C63.5287 41.7965 63.3302 41.8858 63.1219 41.8858H49.1024C49.1322 42.1338 49.152 42.3818 49.152 42.6299C49.152 42.8779 49.1322 43.1161 49.1024 43.374H63.1318C63.3402 43.374 63.5287 43.4633 63.6775 43.6121C63.8164 43.761 63.8859 43.9594 63.8759 44.1678C63.5485 48.8211 61.7527 53.147 58.6968 56.6692C58.5579 56.828 58.3693 56.9173 58.161 56.9272C57.9427 56.947 57.7542 56.8577 57.6153 56.7089L47.6836 46.7574C47.376 47.1443 47.0188 47.4916 46.6418 47.7991L56.5735 57.7309C56.7223 57.8797 56.8017 58.0781 56.7918 58.2766C56.7819 58.4849 56.6926 58.6734 56.5338 58.8123C53.0116 61.8682 48.6857 63.6542 44.0324 63.9816C44.0125 64.0014 43.9927 64.0014 43.9728 64.0014ZM43.9728 47.5908C44.1316 47.5908 44.2903 47.6404 44.4292 47.7495C44.6078 47.8884 44.717 48.1067 44.717 48.3349V62.4536C48.4872 62.0369 51.9896 60.5883 54.9562 58.217L44.965 48.2258C44.8063 48.067 44.7269 47.8388 44.7566 47.6106C44.7864 47.3824 44.9154 47.184 45.1138 47.0649C45.8679 46.6185 46.5029 45.9835 46.9394 45.2294C47.0585 45.031 47.2569 44.902 47.4851 44.8722C47.7133 44.8424 47.9415 44.9218 48.1003 45.0806L58.0915 55.0718C60.4628 52.1151 61.9114 48.6028 62.3281 44.8325H48.2094C47.9812 44.8325 47.763 44.7234 47.624 44.5448C47.4851 44.3662 47.4355 44.1281 47.4951 43.9098C47.624 43.4236 47.6836 43.0069 47.6836 42.62C47.6836 42.233 47.624 41.8163 47.4951 41.3301C47.4355 41.1119 47.4851 40.8737 47.624 40.6951C47.763 40.5165 47.9812 40.4074 48.2094 40.4074H62.3281C61.9114 36.6371 60.4628 33.1248 58.0915 30.1681L48.1003 40.1594C47.9415 40.3181 47.7133 40.3975 47.4851 40.3677C47.2569 40.338 47.0585 40.209 46.9394 40.0105C46.493 39.2565 45.8679 38.6215 45.1138 38.1849C44.9154 38.0659 44.7864 37.8674 44.7566 37.6392C44.7269 37.411 44.8063 37.1828 44.965 37.0241L54.9562 27.0328C51.9996 24.6615 48.4872 23.2129 44.717 22.7962V36.9149C44.717 37.1431 44.6078 37.3614 44.4292 37.5003C44.2506 37.6392 44.0125 37.6888 43.7942 37.6293C42.8219 37.3813 42.177 37.3813 41.2046 37.6293C40.9864 37.6888 40.7482 37.6392 40.5697 37.5003C40.3911 37.3614 40.2819 37.1431 40.2819 36.9149V22.7962C36.5116 23.2129 32.9993 24.6615 30.0426 27.0328L40.0339 37.0241C40.1926 37.1828 40.272 37.411 40.2422 37.6392C40.2125 37.8674 40.0835 38.0659 39.885 38.1849C39.131 38.6314 38.496 39.2664 38.0495 40.0105C37.9305 40.209 37.732 40.338 37.5038 40.3677C37.2756 40.3975 37.0474 40.3181 36.8887 40.1594L26.9073 30.1681C24.536 33.1248 23.0875 36.6371 22.6707 40.4074H36.7895C37.0177 40.4074 37.2359 40.5165 37.3748 40.6951C37.5137 40.8737 37.5633 41.1119 37.5038 41.3301C37.3748 41.8163 37.3153 42.233 37.3153 42.62C37.3153 43.0069 37.3748 43.4236 37.5038 43.9098C37.5633 44.1281 37.5137 44.3662 37.3748 44.5448C37.2359 44.7234 37.0177 44.8325 36.7895 44.8325H22.6707C23.0875 48.6028 24.536 52.1151 26.9073 55.0718L36.8986 45.0806C37.0573 44.9218 37.2855 44.8424 37.5137 44.8722C37.7419 44.902 37.9404 45.031 38.0594 45.2294C38.5059 45.9835 39.1409 46.6185 39.885 47.0649C40.0835 47.184 40.2125 47.3824 40.2422 47.6106C40.272 47.8388 40.1926 48.067 40.0339 48.2258L30.0426 58.217C32.9993 60.5883 36.5116 62.0369 40.2819 62.4536V48.3349C40.2819 48.1067 40.3911 47.8884 40.5697 47.7495C40.7482 47.6106 40.9864 47.561 41.2046 47.6205C42.177 47.8686 42.812 47.8686 43.7942 47.6205C43.8538 47.6007 43.9133 47.5908 43.9728 47.5908Z" fill="currentColor"/>
<path d="M42.4977 7.85405C40.4538 7.85405 38.7969 6.19711 38.7969 4.15322C38.7969 2.10933 40.4538 0.452393 42.4977 0.452393C44.5416 0.452393 46.1985 2.10933 46.1985 4.15322C46.1985 6.19711 44.5416 7.85405 42.4977 7.85405ZM42.4977 1.93074C41.2773 1.93074 40.2752 2.92292 40.2752 4.15322C40.2752 5.3736 41.2674 6.3757 42.4977 6.3757C43.728 6.3757 44.7202 5.38352 44.7202 4.15322C44.7202 2.93284 43.728 1.93074 42.4977 1.93074Z" fill="currentColor"/>
<path d="M42.4977 84.7874C40.4538 84.7874 38.7969 83.1305 38.7969 81.0866C38.7969 79.0526 40.4538 77.3857 42.4977 77.3857C44.5416 77.3857 46.1985 79.0427 46.1985 81.0866C46.1985 83.1305 44.5416 84.7874 42.4977 84.7874ZM42.4977 78.874C41.2773 78.874 40.2752 79.8662 40.2752 81.0965C40.2752 82.3169 41.2674 83.319 42.4977 83.319C43.728 83.319 44.7202 82.3268 44.7202 81.0965C44.7202 79.8662 43.728 78.874 42.4977 78.874Z" fill="currentColor"/>
<path d="M80.9625 46.3208C78.9286 46.3208 77.2617 44.6639 77.2617 42.62C77.2617 40.5761 78.9187 38.9192 80.9625 38.9192C83.0064 38.9192 84.6634 40.5761 84.6634 42.62C84.6634 44.6639 83.0064 46.3208 80.9625 46.3208ZM80.9625 40.4075C79.7422 40.4075 78.7401 41.3996 78.7401 42.6299C78.7401 43.8602 79.7322 44.8524 80.9625 44.8524C82.1829 44.8524 83.185 43.8602 83.185 42.6299C83.185 41.3996 82.1928 40.4075 80.9625 40.4075Z" fill="currentColor"/>
<path d="M4.02895 46.3208C1.98506 46.3208 0.328125 44.6639 0.328125 42.62C0.328125 40.5761 1.98506 38.9192 4.02895 38.9192C6.06292 38.9192 7.72978 40.5761 7.72978 42.62C7.72978 44.6639 6.07284 46.3208 4.02895 46.3208ZM4.02895 40.4075C2.80857 40.4075 1.80647 41.3996 1.80647 42.6299C1.80647 43.8602 2.79865 44.8524 4.02895 44.8524C5.24933 44.8524 6.25144 43.8602 6.25144 42.6299C6.25144 41.3996 5.24933 40.4075 4.02895 40.4075Z" fill="currentColor"/>
<path d="M15.2985 19.1152C14.346 19.1152 13.4034 18.7581 12.6791 18.0338C11.9846 17.3392 11.5977 16.4066 11.5977 15.4144C11.5977 14.4222 11.9846 13.4995 12.6791 12.7951C14.1178 11.3564 16.4693 11.3564 17.9079 12.7951C18.6024 13.4896 18.9894 14.4222 18.9894 15.4144C18.9894 16.4066 18.6024 17.3293 17.9079 18.0338C17.1935 18.7581 16.2411 19.1152 15.2985 19.1152ZM15.2985 13.2019C14.7329 13.2019 14.1575 13.4201 13.7308 13.8468C13.3141 14.2635 13.076 14.8191 13.076 15.4144C13.076 16.0097 13.3042 16.5653 13.7308 16.9821C14.594 17.8453 16.0029 17.8453 16.8661 16.9821C17.2828 16.5653 17.521 16.0097 17.521 15.4144C17.521 14.8191 17.2928 14.2635 16.8661 13.8468C16.4296 13.4201 15.864 13.2019 15.2985 13.2019Z" fill="currentColor"/>
<path d="M69.7008 73.5164C68.7483 73.5164 67.8058 73.1592 67.0815 72.4349C66.377 71.7404 66 70.8077 66 69.8155C66 68.8234 66.387 67.9006 67.0815 67.1962C68.5201 65.7575 70.8716 65.7575 72.3103 67.1962C73.0048 67.8907 73.3917 68.8234 73.3917 69.8155C73.3917 70.8077 73.0048 71.7304 72.3103 72.4349C71.5959 73.1592 70.6434 73.5164 69.7008 73.5164ZM69.7008 67.603C69.1353 67.603 68.5598 67.8213 68.1332 68.2479C67.7165 68.6646 67.4784 69.2202 67.4784 69.8155C67.4784 70.4108 67.7065 70.9665 68.1332 71.3832C68.9964 72.2464 70.4053 72.2464 71.2685 71.3832C71.6852 70.9665 71.9233 70.4108 71.9233 69.8155C71.9233 69.2202 71.6951 68.6646 71.2685 68.2479C70.8319 67.8213 70.2664 67.603 69.7008 67.603Z" fill="currentColor"/>
<path d="M69.7008 19.1152C68.7483 19.1152 67.8058 18.7581 67.0815 18.0338C66.377 17.3392 66 16.4066 66 15.4144C66 14.4222 66.387 13.4995 67.0815 12.7951C68.5201 11.3564 70.8716 11.3564 72.3103 12.7951C73.0048 13.4896 73.3917 14.4222 73.3917 15.4144C73.3917 16.4066 73.0048 17.3293 72.3103 18.0338C71.5959 18.7581 70.6434 19.1152 69.7008 19.1152ZM69.7008 13.2019C69.1353 13.2019 68.5598 13.4201 68.1332 13.8468C67.7165 14.2635 67.4784 14.8191 67.4784 15.4144C67.4784 16.0097 67.7065 16.5653 68.1332 16.9821C68.9964 17.8453 70.4053 17.8453 71.2685 16.9821C71.6852 16.5653 71.9233 16.0097 71.9233 15.4144C71.9233 14.8191 71.6951 14.2635 71.2685 13.8468C70.8319 13.4201 70.2664 13.2019 69.7008 13.2019Z" fill="currentColor"/>
<path d="M15.2985 73.5164C14.3559 73.5164 13.4034 73.1592 12.6791 72.4349C11.9846 71.7404 11.5977 70.8077 11.5977 69.8155C11.5977 68.8234 11.9846 67.9006 12.6791 67.1962C14.1178 65.7575 16.4693 65.7575 17.9079 67.1962C18.6024 67.8907 18.9894 68.8234 18.9894 69.8155C18.9894 70.8077 18.6024 71.7304 17.9079 72.4349C17.1935 73.1592 16.2411 73.5164 15.2985 73.5164ZM15.2985 67.603C14.7329 67.603 14.1575 67.8213 13.7308 68.2479C13.3141 68.6646 13.076 69.2202 13.076 69.8155C13.076 70.4108 13.3042 70.9665 13.7308 71.3832C14.594 72.2464 16.0029 72.2464 16.8661 71.3832C17.2828 70.9665 17.521 70.4108 17.521 69.8155C17.521 69.2202 17.2928 68.6646 16.8661 68.2479C16.4296 67.8213 15.864 67.603 15.2985 67.603Z" fill="currentColor"/>
</svg>
