<svg width="85" height="86" viewBox="0 0 85 86" fill="none" xmlns="http://www.w3.org/2000/svg">
<path d="M60.9197 84.9559H28.0424C18.3084 84.9559 9.729 79.5223 6.19131 71.1229C6.09598 70.8899 6.11717 70.6356 6.25486 70.4238C6.39255 70.212 6.62558 70.0955 6.86919 70.0955H78.2268C78.4704 70.0955 78.7141 70.2226 78.8411 70.4238C78.9788 70.6356 79 70.8899 78.9047 71.1229C76.0343 77.9546 71.6493 84.9559 60.9197 84.9559ZM8.0343 71.5783C11.5932 78.8444 19.3147 83.473 28.0424 83.473H60.9197C68.5564 83.473 73.3122 80.0095 77.1041 71.5783H8.0343Z" fill="currentColor"/>
<path d="M46.6393 65.6257H10.9552C10.6904 65.6257 10.4362 65.488 10.3091 65.2444C10.1714 65.0113 10.182 64.7254 10.3197 64.4923L45.9932 5.04001C46.1626 4.75403 46.5016 4.61633 46.8299 4.71166C47.1477 4.79639 47.3701 5.09297 47.3701 5.43191V64.8948C47.3807 65.2973 47.0418 65.6257 46.6393 65.6257ZM12.2686 64.1428H45.8873V8.10107L12.2686 64.1428Z" fill="currentColor"/>
<path d="M60.2941 67.5534C56.2692 67.5534 51.5452 67.0662 46.4399 65.6045C46.228 65.5515 46.0586 65.4032 45.9738 65.202C45.8891 65.0113 45.8785 64.7783 45.9738 64.5877C52.3713 50.2038 52.3607 34.316 45.9421 13.0792C45.8467 12.7615 45.9738 12.412 46.2598 12.2319C46.5458 12.0518 46.9165 12.0942 47.1601 12.3272C70.7059 34.7609 74.1165 64.5241 74.1483 64.8207C74.1801 65.1596 73.9894 65.4774 73.6611 65.5939C73.3221 65.6998 68.1215 67.5534 60.2941 67.5534ZM47.6579 64.397C60.0399 67.7123 70.134 65.1067 72.5807 64.3652C71.9875 60.2238 67.7296 35.3858 48.1558 15.3883C53.7589 35.2587 53.5894 50.511 47.6579 64.397Z" fill="currentColor"/>
<path d="M46.6399 71.5783C46.2268 71.5783 45.8984 71.25 45.8984 70.8369V0.962136C45.8984 0.549052 46.2268 0.220703 46.6399 0.220703C47.053 0.220703 47.3813 0.549052 47.3813 0.962136V70.8263C47.3813 71.2394 47.0424 71.5783 46.6399 71.5783Z" fill="currentColor"/>
<path d="M76.0353 76.0376H9.47581C9.06272 76.0376 8.73438 75.7092 8.73438 75.2961C8.73438 74.883 9.06272 74.5547 9.47581 74.5547H76.0353C76.4484 74.5547 76.7767 74.883 76.7767 75.2961C76.7873 75.6986 76.4484 76.0376 76.0353 76.0376Z" fill="currentColor"/>
</svg>
