<svg width="30" height="30" viewBox="0 0 30 30" fill="none" xmlns="http://www.w3.org/2000/svg">
<g clip-path="url(#clip0_2_972)">
<path d="M2.5 13.3333H27.5V28.3333H2.5V13.3333Z" fill="#66757F"/>
<path d="M1.66667 28.3333H28.3333C28.7754 28.3333 29.1993 28.5089 29.5118 28.8215C29.8244 29.134 30 29.558 30 30H0C0 29.558 0.175595 29.134 0.488155 28.8215C0.800716 28.5089 1.22464 28.3333 1.66667 28.3333Z" fill="#CCD6DD"/>
<path d="M15 19.1667C14.337 19.1667 13.7011 19.4301 13.2322 19.8989C12.7634 20.3678 12.5 21.0036 12.5 21.6667V26.6667H17.5V21.6667C17.5 21.0036 17.2366 20.3678 16.7678 19.8989C16.2989 19.4301 15.663 19.1667 15 19.1667Z" fill="#292F33"/>
<path d="M2.5 17.5H5.83333V26.6667H2.5V17.5ZM7.5 17.5H10.8333V26.6667H7.5V17.5ZM24.1667 17.5H27.5V26.6667H24.1667V17.5ZM19.1667 17.5H22.5V26.6667H19.1667V17.5Z" fill="#CCD6DD"/>
<path d="M1.66675 26.6667H28.3334V28.3334H1.66675V26.6667Z" fill="#AAB8C2"/>
<path d="M30 9.16667L15 0L0 9.16667H30Z" fill="#66757F"/>
<path d="M15.0001 2L1.66675 10V13.3333H28.3334V10L15.0001 2Z" fill="#CCD6DD"/>
<path d="M2.5 15.8333H5.83333V17.5H2.5V15.8333ZM7.5 15.8333H10.8333V17.5H7.5V15.8333ZM19.1667 15.8333H22.5V17.5H19.1667V15.8333ZM24.1667 15.8333H27.5V17.5H24.1667V15.8333Z" fill="#8899A6"/>
<path d="M0.833252 10H29.1666V14.1667H0.833252V10Z" fill="#CCD6DD"/>
<path d="M30 9.99998C30 10.221 29.9122 10.433 29.7559 10.5892C29.5996 10.7455 29.3877 10.8333 29.1667 10.8333H0.833333C0.61232 10.8333 0.400358 10.7455 0.244078 10.5892C0.0877974 10.433 0 10.221 0 9.99998V9.16665C0 8.94563 0.0877974 8.73367 0.244078 8.57739C0.400358 8.42111 0.61232 8.33331 0.833333 8.33331H29.1667C29.3877 8.33331 29.5996 8.42111 29.7559 8.57739C29.9122 8.73367 30 8.94563 30 9.16665V9.99998ZM30 15C30 15.221 29.9122 15.433 29.7559 15.5892C29.5996 15.7455 29.3877 15.8333 29.1667 15.8333H0.833333C0.61232 15.8333 0.400358 15.7455 0.244078 15.5892C0.0877974 15.433 0 15.221 0 15V14.1666C0 13.9456 0.0877974 13.7337 0.244078 13.5774C0.400358 13.4211 0.61232 13.3333 0.833333 13.3333H29.1667C29.3877 13.3333 29.5996 13.4211 29.7559 13.5774C29.9122 13.7337 30 13.9456 30 14.1666V15Z" fill="#AAB8C2"/>
<path d="M10.8333 26.6667H19.1666V28.3334H10.8333V26.6667Z" fill="#E1E8ED"/>
<path d="M9.16675 28.3333H20.8334V30H9.16675V28.3333Z" fill="#F5F8FA"/>
</g>
<defs>
<clipPath id="clip0_2_972">
<rect width="30" height="30" fill="white"/>
</clipPath>
</defs>
</svg>
