<svg width="47" height="45" viewBox="0 0 47 45" fill="none" xmlns="http://www.w3.org/2000/svg">
<path d="M21.0307 16.9564H25.9728V29.3116H21.0307V16.9564ZM21.0282 31.7827H25.9703V36.7248H21.0282V31.7827Z" fill="#3E3E3F"/>
<path d="M27.8681 2.62426C27.0081 1.00572 25.3328 0 23.4992 0C21.6657 0 19.9904 1.00572 19.1304 2.62673L0.997852 36.8829C0.595485 37.6352 0.396172 38.4793 0.419571 39.3321C0.442971 40.1849 0.688276 41.0169 1.13129 41.7459C1.56792 42.4783 2.18801 43.0842 2.93034 43.5036C3.67266 43.9231 4.51156 44.1417 5.3642 44.1379H41.6343C43.3838 44.1379 44.9677 43.2434 45.8697 41.7459C46.312 41.0166 46.5569 40.1847 46.5803 39.3321C46.6037 38.4795 46.4048 37.6354 46.0031 36.8829L27.8681 2.62426ZM5.3642 39.1958L23.4992 4.93963L41.6467 39.1958H5.3642Z" fill="#3E3E3F"/>
</svg>
