<svg width="21" height="20" viewBox="0 0 21 20" fill="none" xmlns="http://www.w3.org/2000/svg">
<path fill-rule="evenodd" clip-rule="evenodd" d="M10.1449 0C4.6219 0 0.144897 4.477 0.144897 10C0.144897 11.89 0.669897 13.66 1.5829 15.168L0.690897 18.2C0.639682 18.3741 0.636312 18.5587 0.681142 18.7346C0.725972 18.9104 0.817345 19.0709 0.945657 19.1992C1.07397 19.3276 1.23448 19.4189 1.41031 19.4638C1.58615 19.5086 1.77081 19.5052 1.9449 19.454L4.9769 18.562C6.53563 19.5049 8.32314 20.0023 10.1449 20C15.6679 20 20.1449 15.523 20.1449 10C20.1449 4.477 15.6679 0 10.1449 0ZM7.8829 12.263C9.9059 14.285 11.8369 14.552 12.5189 14.577C13.5559 14.615 14.5659 13.823 14.9589 12.904C15.0081 12.7896 15.0259 12.6641 15.0104 12.5405C14.9949 12.417 14.9468 12.2998 14.8709 12.201C14.3229 11.501 13.5819 10.998 12.8579 10.498C12.7068 10.3932 12.521 10.3512 12.3395 10.3806C12.158 10.4101 11.9951 10.5088 11.8849 10.656L11.2849 11.571C11.2532 11.62 11.204 11.6551 11.1474 11.6692C11.0908 11.6833 11.0309 11.6754 10.9799 11.647C10.5729 11.414 9.9799 11.018 9.5539 10.592C9.1279 10.166 8.7559 9.6 8.5469 9.219C8.52161 9.17046 8.51447 9.11449 8.52675 9.06115C8.53903 9.00781 8.56993 8.9606 8.6139 8.928L9.5379 8.242C9.67015 8.12759 9.75552 7.96841 9.77767 7.79495C9.79981 7.62149 9.75716 7.44596 9.6579 7.302C9.2099 6.646 8.6879 5.812 7.9309 5.259C7.83299 5.18866 7.71858 5.14479 7.59875 5.13165C7.47891 5.11851 7.35772 5.13654 7.2469 5.184C6.3269 5.578 5.5309 6.588 5.5689 7.627C5.5939 8.309 5.8609 10.24 7.8829 12.263Z" fill="#757575"/>
</svg>
